<svg xmlns="http://www.w3.org/2000/svg" viewBox="0 0 465 449.2" style="enable-background:new 0 0 465 449.2" xml:space="preserve"><path d="M164.5.8c-38.7 5.8-54.7 38.1-39.9 80.4 1.3 3.8 2.2 7.2 1.9 7.6-.2.4-2.2 1-4.3 1.4-11.6 1.8-28.7 15-39.2 30.1-14.1 20.5-27.6 58.5-30.5 86-1.1 10.9-1.1 10.8-5.3 10-5.3-.9-14.2-5.2-17.5-8.3-10.3-9.7-9.5-26 2.3-46.6 13.2-23 38.5-47.4 74.5-71.5 16.4-11 15-10 14.3-10.7-.9-.8-17.6 5.9-29.8 12.1-55 27.6-91 68.2-91 102.5 0 13.1 3.6 22.2 12.6 31.9 9.3 10.1 21.9 16.5 39.8 20.2 4.8 1 9 1.9 9.2 2.1s-.4 2.6-1.3 5.3c-2.4 7.6-2.1 22.2.6 32 7.7 28 32.6 60.6 65.9 86.5l8.3 6.4-4.3 4.3c-5.9 6.1-14.7 10.3-21.2 10.3-12.7 0-25.8-12.2-36.7-34.1-10.4-20.8-18.2-55.9-20.4-91.4-.8-13.9-1.5-18.9-2.5-17.9-.4.5-1.6 6.3-2.6 12.9-2.1 14.5-2.4 48.2-.6 62.5 5.8 44.6 22.2 76 45.7 87.6 7.9 3.9 7.9 3.9 20 3.9 13.3-.1 17.4-1.2 28.9-8.3 5.7-3.4 19.1-15.7 23.3-21.4l2-2.7 5.6 5.3c11.8 11.2 26.7 16.5 49.3 17.3 26.8 1.1 52.9-3.9 82.7-15.8l11.8-4.6 1.1 2.6c3.6 9.3 3 20.8-1.3 27.8-5.5 8.9-19 13.5-39.4 13.6-14.8 0-25.7-1.7-43.3-6.8-18.8-5.4-47.5-17.2-64.3-26.5-16-8.8-1.5 4.5 20.6 18.9 21.8 14.2 51 26.9 73.5 31.7 6.4 1.4 12.5 1.9 24.5 1.8 14.5 0 16.7-.2 23.7-2.6 18.3-6.1 29.5-18.4 33.4-36.6.7-3.7 1.4-8.8 1.4-11.3 0-7.1-2.7-20.8-5.8-29.7l-2.8-7.9 5-1.2c13.5-3.1 29.6-15.8 40.1-31.6 14.6-21.9 27.5-59.7 30.1-88.3l.7-7.4 3.6.7c10.3 1.9 20.3 9.1 23.7 17 7 16.4-8.7 47.7-37.4 74.6-14.3 13.4-42.3 34.7-55.4 42.3-3.7 2.1-4.9 3.6-2.7 3.6.5 0 5.9-2 11.9-4.5 29.7-12.1 56.2-29.4 76.5-49.9 31.3-31.6 39.6-62.2 23.4-86.4-8.8-13.3-25.3-22.7-46-26.2-4.1-.7-7.5-1.4-7.7-1.5-.1-.1.4-2.8 1.3-6.1 2.1-8.3 1.9-21.4-.5-31-3-11.5-12.5-30-22.1-42.9-9.8-13-31-34.5-42.9-43.4-4.7-3.5-8.6-6.7-8.8-7.1-.2-.4 2-2.8 4.8-5.3 18.6-16.7 36.4-10.9 53 17.3 13.2 22.6 22.3 60.9 24.6 103.9.7 12.7 1.6 16.6 2.7 11.8 3.8-14.9 4.9-55.5 2.1-76.9-2.9-22.5-9.7-44.3-18.5-59.1-5.6-9.4-16.5-20.7-23.8-24.5-16.7-8.9-33.5-8-51.8 2.9-5.5 3.4-17.5 14.3-22.7 20.8l-2.7 3.3-5.9-5.6c-6.8-6.5-16.5-11.5-28.5-14.7-11.9-3.2-38-3.2-56 0-16 2.8-32.8 7.6-46 13.1-14.3 5.9-13.2 5.8-14.7.8-.7-2.3-1.3-7.9-1.3-12.3 0-6.9.4-8.6 2.7-12.5 4.3-7.3 10.3-11 22-13.4 21.1-4.4 50 0 82.3 12.2 14 5.4 37.1 15.7 44.1 19.8 6.6 3.9 7.3 2.4 1.3-2.7-17.4-14.7-42.4-29.5-65.7-38.8C208.1 2.3 182.5-1.9 164.5.8zm81 61.5c17.1 3.6 26.6 8.6 32.1 16.7 5.2 7.7 5.1 10.2-1.2 25.2-3 7.2-6.4 14.9-7.4 17.1-3 5.9-14.8 18.4-26.1 27.5l-10 8-3.2-2.2c-24.4-17-50.3-40.8-62.9-57.8-6.9-9.3-16.1-25.2-15-26.1 1-.9 20.5-5.4 32.4-7.3 22.1-3.8 46.8-4.2 61.3-1.1zm104.2 42c14.6 18 26.4 38.5 31.3 54 2.7 8.5 3.7 23.2 2.1 29.3-1.6 5.7-8.2 13-12.5 13.6-1.7.3-9.6 1.3-17.5 2.2-12.3 1.5-15.4 1.6-22 .5-8.3-1.4-19.3-4.7-31.3-9.3-7.8-2.9-7.8-2.9-7.8-6.7 0-2 .7-9.1 1.6-15.6 5.1-39.4 13.8-66.6 28.9-90.5l2.8-4.4 9 9.4c4.9 5.2 11.8 13 15.4 17.5zM138.3 114c2.4.9 9 8.9 22.5 27.2 4.2 5.7 10.6 28.9 11.9 43.3l.6 6.3-6.9 3.1c-37.3 16.9-70.9 25.4-97.5 24.7l-10.4-.3.3-2.5c.9-6.6 11.9-36.6 18-49.4 19.4-40.1 42.3-59.6 61.5-52.4zm115.1 102.3c.3 2.7.6 8.5.6 12.7v7.7l-10.1 6.6-10.1 6.6-10.1-5.2c-5.6-2.8-10.7-5.6-11.3-6.3-.7-.6-1.4-6-1.6-13.1l-.5-12 10.5-6.6 10.4-6.6 10.8 5.6 10.8 5.6.6 5zm148.2 15.1 5.1.6-3.3 11.3c-10.2 34.5-25.6 63.8-41.9 79.9-11.8 11.7-22.7 16.2-32.5 13.6-4.9-1.3-5.5-2-16.7-16.8-12.3-16.2-15.1-23.2-19.3-47.7-1.6-9.6-1.8-12.1-.8-13.1 2.1-1.9 27.1-12.2 41.1-16.8 25.8-8.6 52.4-12.9 68.3-11zM143 248.1c5.3 1.4 14 4.2 19.5 6.4l10 3.9-.3 7c-.9 24.4-9.9 62.9-19.6 84-4.2 9-12.3 22.4-13.6 22.4-1.1 0-18.1-18.7-25.5-28-20.3-25.4-32.5-51.6-32.8-70.5-.2-9.3 1.2-14.2 5.6-19.2 3.8-4.3 8.1-6.3 13.9-6.4 2.4 0 7.9-.6 12.3-1.4 10.2-1.7 18.6-1.2 30.5 1.8zm103.4 55.6c23.4 17.6 41.3 35.1 53.1 51.5 5.5 7.8 13.5 21.5 13.5 23.2 0 .7-4.5 2.3-10.7 3.8-56.3 13.2-101.9 8.7-115.4-11.5-4.9-7.2-4.8-10.4 1.1-24.2 8.9-20.9 9.7-22.2 18.8-31.5 9.8-10 23-21.2 25.1-21.2.7 0 7.2 4.5 14.5 9.9z" style="fill:#fff"/></svg>